/* XPM */
static char * closeA_xpm[] = {
"20 42 36 1",
" 	c #353535",
".	c #D7DBDD",
"+	c #E4E7E8",
"@	c #FFFFFF",
"#	c #DEE1E3",
"$	c #F5F6F6",
"%	c #343738",
"&	c #353536",
"*	c #3C3C3C",
"=	c #404040",
"-	c #444444",
";	c #484848",
">	c #4B4B4B",
",	c #4A4A4A",
"'	c #474747",
")	c #3F3F3F",
"!	c #4F4F4F",
"~	c #545454",
"{	c #4E4E4E",
"]	c #A0A0A0",
"^	c #A2A2A2",
"/	c #515151",
"(	c #424242",
"_	c #B3B3B3",
":	c #A1A1A1",
"<	c #A3A3A3",
"[	c #555555",
"}	c #434343",
"|	c #393939",
"1	c #414141",
"2	c #3D3D3D",
"3	c #494949",
"4	c #525252",
"5	c #363636",
"6	c #464646",
"7	c #373737",
"                    ",
"                    ",
"                    ",
"                    ",
"      .+      +.    ",
"      +@+    +@+    ",
"       #@$% #@$&    ",
"        +@++@+      ",
"         +@@+       ",
"         #@@$%      ",
"        +@++@+      ",
"       #@$& #@$%    ",
"      +@+    +@+    ",
"      .+      +.    ",
"                    ",
"                    ",
"                    ",
"                    ",
"                    ",
"                    ",
"                    ",
"          **        ",
"       =-;>,'-)     ",
"      ',>>>>>>,'    ",
"     >!~>>>>>>~!,   ",
"    ,{]^~>>>>~^]/'  ",
"   (>~^_^~>>~^_^~,) ",
"   '>>~:_<[~:_<~>>} ",
"  |;>>>~^_^^_^~>>>' ",
"  1>>>>>~^__^~>>>>,*",
"  1>>>>>~:__<[>>>>>2",
"  |;>>>~^_^^_^~>>>' ",
"   '>>~:_<~~:_<[>>- ",
"   }>~^_^~>>~^_^~,= ",
"    34]^~>>>>~^]4'  ",
"    5>4~>>>>>>~4>   ",
"     53>>>>>>>>,    ",
"       }6;>>;61     ",
"         |117       ",
"                    ",
"                    ",
"                    "};
