/* XPM */
static char * closeI_xpm[] = {
"20 42 50 1",
" 	c #353535",
".	c #999999",
"+	c #3F3F3F",
"@	c #4D4D4D",
"#	c #565656",
"$	c #555555",
"%	c #4C4C4C",
"&	c #3B3B3B",
"*	c #444444",
"=	c #5B5B5B",
"-	c #616161",
";	c #666666",
">	c #6A6A6A",
",	c #696969",
"'	c #656565",
")	c #5A5A5A",
"!	c #484848",
"~	c #4A4A4A",
"{	c #717171",
"]	c #777777",
"^	c #474747",
"/	c #414141",
"(	c #6F6F6F",
"_	c #E4E4E4",
":	c #E6E6E6",
"<	c #737373",
"[	c #5E5E5E",
"}	c #FFFFFF",
"|	c #434343",
"1	c #E5E5E5",
"2	c #E8E8E8",
"3	c #797979",
"4	c #787878",
"5	c #606060",
"6	c #393939",
"7	c #525252",
"8	c #676767",
"9	c #5C5C5C",
"0	c #5D5D5D",
"a	c #575757",
"b	c #3D3D3D",
"c	c #5F5F5F",
"d	c #454545",
"e	c #686868",
"f	c #757575",
"g	c #424242",
"h	c #4E4E4E",
"i	c #4B4B4B",
"j	c #646464",
"k	c #505050",
"                    ",
"                    ",
"                    ",
"                    ",
"      ..      ..    ",
"      ...    ...    ",
"       ...  ...     ",
"        ......      ",
"         ....       ",
"         ....       ",
"        ......      ",
"       ...  ...     ",
"      ...    ...    ",
"      ..      ..    ",
"                    ",
"                    ",
"                    ",
"                    ",
"                    ",
"                    ",
"                    ",
"        +@#$%&      ",
"      *=-;>,'-)&    ",
"     @',>>>>>>,'!   ",
"    ~>{]>>>>>>]{,^  ",
"   /,(_:]>>>>]:_<'& ",
"   [>]:}:]>>]:}:],) ",
"  |'>>]1}23]1}24>>56",
"  78>>>]:}::}:]>>>'%",
"  9>>>>>]:}}:]>>>>,$",
"  0>>>>>]1}}23>>>>>a",
"  78>>>]:}::}:]>>>'%",
"  *'>>]1}24]1}23>>-b",
"   c>]:}:]>>]:}:],= ",
"   def_:]>>>>]:_f'g ",
"    h>f]>>>>>>]f>i  ",
"     he>>>>>>>>,!   ",
"      dcj8>>8j0b    ",
"        |709k/      ",
"                    ",
"                    ",
"                    "};
