/* XPM */
static char * closeO_xpm[] = {
"20 42 63 1",
" 	c #353535",
".	c #3F3F3F",
"+	c #4D4D4D",
"@	c #565656",
"#	c #555555",
"$	c #4C4C4C",
"%	c #3B3B3B",
"&	c #444444",
"*	c #5B5B5B",
"=	c #616161",
"-	c #666666",
";	c #6A6A6A",
">	c #696969",
",	c #656565",
"'	c #5A5A5A",
")	c #484848",
"!	c #4A4A4A",
"~	c #717171",
"{	c #777777",
"]	c #474747",
"^	c #414141",
"/	c #6F6F6F",
"(	c #E4E4E4",
"_	c #E6E6E6",
":	c #737373",
"<	c #5E5E5E",
"[	c #FFFFFF",
"}	c #434343",
"|	c #E5E5E5",
"1	c #E8E8E8",
"2	c #797979",
"3	c #787878",
"4	c #606060",
"5	c #393939",
"6	c #525252",
"7	c #676767",
"8	c #5C5C5C",
"9	c #5D5D5D",
"0	c #575757",
"a	c #3D3D3D",
"b	c #5F5F5F",
"c	c #454545",
"d	c #686868",
"e	c #757575",
"f	c #424242",
"g	c #4E4E4E",
"h	c #4B4B4B",
"i	c #646464",
"j	c #505050",
"k	c #3C3C3C",
"l	c #404040",
"m	c #4F4F4F",
"n	c #545454",
"o	c #A0A0A0",
"p	c #A2A2A2",
"q	c #515151",
"r	c #B3B3B3",
"s	c #A1A1A1",
"t	c #A3A3A3",
"u	c #494949",
"v	c #363636",
"w	c #464646",
"x	c #373737",
"        .+@#$%      ",
"      &*=-;>,='%    ",
"     +,>;;;;;;>,)   ",
"    !;~{;;;;;;{~>]  ",
"   ^>/(_{;;;;{_(:,% ",
"   <;{_[_{;;{_[_{>' ",
"  },;;{|[12{|[13;;45",
"  67;;;{_[__[_{;;;,$",
"  8;;;;;{_[[_{;;;;>#",
"  9;;;;;{|[[12;;;;;0",
"  67;;;{_[__[_{;;;,$",
"  &,;;{|[13{|[12;;=a",
"   b;{_[_{;;{_[_{>* ",
"   cde(_{;;;;{_(e,f ",
"    g;e{;;;;;;{e;h  ",
"     gd;;;;;;;;>)   ",
"      cbi7;;7i9a    ",
"        }698j^      ",
"                    ",
"                    ",
"                    ",
"          kk        ",
"       l&)h!]&.     ",
"      ]!hhhhhh!]    ",
"     hmnhhhhhhnm!   ",
"    !gopnhhhhnpoq]  ",
"   fhnprpnhhnprpn!. ",
"   ]hhnsrt#nsrtnhh} ",
"  5)hhhnprpprpnhhh] ",
"  ^hhhhhnprrpnhhhh!k",
"  ^hhhhhnsrrt#hhhhha",
"  5)hhhnprpprpnhhh] ",
"   ]hhnsrtnnsrt#hh& ",
"   }hnprpnhhnprpn!l ",
"    u6opnhhhhnpo6]  ",
"    vh6nhhhhhhn6h   ",
"     vuhhhhhhhh!    ",
"       }w)hh)w^     ",
"         5^^x       ",
"                    ",
"                    ",
"                    "};
