/* XPM */
static char * maximizeA_xpm[] = {
"20 42 16 1",
" 	c #353535",
".	c #FFFFFF",
"+	c #3B474C",
"@	c #455055",
"#	c #4B565B",
"$	c #404B4F",
"%	c #4A565A",
"&	c #4C585C",
"*	c #3F4A4F",
"=	c #445054",
"-	c #B8C2C6",
";	c #3C474B",
">	c #465055",
",	c #4B555A",
"'	c #4A555A",
")	c #455054",
"                    ",
"                    ",
"                    ",
"                    ",
"      ..........    ",
"      ..........    ",
"      ..      ..    ",
"      ..      ..    ",
"      ..      ..    ",
"      ..      ..    ",
"      ..      ..    ",
"      ..      ..    ",
"      ..........    ",
"      ..........    ",
"                    ",
"                    ",
"                    ",
"                    ",
"                    ",
"                    ",
"                    ",
"        +@##@+      ",
"      $%&&&&&&%*    ",
"     =&&&&&&&&&&=   ",
"    =&&&&&&&&&&&&=  ",
"   $&&----------&&* ",
"   %&&----------&&% ",
"  +&&&--&&&&&&--&&&;",
"  >&&&--&&&&&&--&&&@",
"  ,&&&--&&&&&&--&&&,",
"  ,&&&--&&&&&&--&&&'",
"  @&&&--&&&&&&--&&&)",
"  +&&&--&&&&&&--&&&;",
"   %&&----------&&% ",
"   *&&----------&&* ",
"    =&&&&&&&&&&&&=  ",
"     =&&&&&&&&&&=   ",
"      *%&&&&&&%*    ",
"        ;),,);      ",
"                    ",
"                    ",
"                    "};
