/* XPM */
static char * maximizeO_xpm[] = {
"20 42 6 1",
" 	c #353535",
".	c #6A6A6A",
"+	c #FFFFFF",
"@	c #474A4B",
"#	c #4B4B4B",
"$	c #A2A2A2",
"        ......      ",
"      ..........    ",
"     ............   ",
"    ..............  ",
"   ...++++++++++... ",
"   ...++++++++++... ",
"  ....++......++....",
"  ....++......++....",
"  ....++......++....",
"  ....++......++....",
"  ....++......++....",
"  ....++......++....",
"   ...++++++++++... ",
"   ...++++++++++... ",
"    ..............  ",
"     ............   ",
"      ..........    ",
"        ......      ",
"                    ",
"                    ",
"                    ",
"        @####@      ",
"      ##########    ",
"     ############   ",
"    ##############  ",
"   ###$$$$$$$$$$### ",
"   ###$$$$$$$$$$### ",
"  @###$$######$$###@",
"  ####$$######$$####",
"  ####$$######$$####",
"  ####$$######$$####",
"  ####$$######$$####",
"  @###$$######$$###@",
"   ###$$$$$$$$$$### ",
"   ###$$$$$$$$$$### ",
"    ##############  ",
"     ############   ",
"      ##########    ",
"        @####@      ",
"                    ",
"                    ",
"                    "};
