/* XPM */
static char * minimizeO_xpm[] = {
"20 42 13 1",
" 	c #353535",
".	c #353636",
"+	c #6A6A6A",
"@	c #414344",
"#	c #3A3C3D",
"$	c #FFFFFF",
"%	c #3C3E3E",
"&	c #373839",
"*	c #4B4B4B",
"=	c #434546",
"-	c #3D4041",
";	c #B8C2C6",
">	c #3F4142",
"       .++++++.     ",
"      ++++++++++    ",
"    @++++++++++++#  ",
"    ++++++++++++++  ",
"   ++++++++++++++++ ",
"  .++++++++++++++++.",
"  ++++++++++++++++++",
"  ++++++++++++++++++",
"  ++++++++++++++++++",
"  ++++++++++++++++++",
"  ++++++++++++++++++",
"  ++++++++++++++++++",
"  .+++$$$$$$$$$$+++.",
"   +++$$$$$$$$$$+++ ",
"    ++++++++++++++  ",
"    %++++++++++++#  ",
"      ++++++++++    ",
"       .++++++.     ",
"                    ",
"                    ",
"                    ",
"       &******&     ",
"      **********    ",
"    =************-  ",
"    **************  ",
"   **************** ",
"  &****************&",
"  ******************",
"  ******************",
"  ******************",
"  ******************",
"  ******************",
"  ******************",
"  &***;;;;;;;;;;***&",
"   ***;;;;;;;;;;*** ",
"    **************  ",
"    >************-  ",
"      **********    ",
"       &******&     ",
"                    ",
"                    ",
"                    "};
