/* XPM */
static char * minimizeA_xpm[] = {
"20 42 8 1",
" 	c #353535",
".	c #FFFFFF",
"+	c #373839",
"@	c #4B4B4B",
"#	c #434546",
"$	c #3D4041",
"%	c #B8C2C6",
"&	c #3F4142",
"                    ",
"                    ",
"                    ",
"                    ",
"                    ",
"                    ",
"                    ",
"                    ",
"                    ",
"                    ",
"                    ",
"                    ",
"      ..........    ",
"      ..........    ",
"                    ",
"                    ",
"                    ",
"                    ",
"                    ",
"                    ",
"                    ",
"       +@@@@@@+     ",
"      @@@@@@@@@@    ",
"    #@@@@@@@@@@@@$  ",
"    @@@@@@@@@@@@@@  ",
"   @@@@@@@@@@@@@@@@ ",
"  +@@@@@@@@@@@@@@@@+",
"  @@@@@@@@@@@@@@@@@@",
"  @@@@@@@@@@@@@@@@@@",
"  @@@@@@@@@@@@@@@@@@",
"  @@@@@@@@@@@@@@@@@@",
"  @@@@@@@@@@@@@@@@@@",
"  @@@@@@@@@@@@@@@@@@",
"  +@@@%%%%%%%%%%@@@+",
"   @@@%%%%%%%%%%@@@ ",
"    @@@@@@@@@@@@@@  ",
"    &@@@@@@@@@@@@$  ",
"      @@@@@@@@@@    ",
"       +@@@@@@+     ",
"                    ",
"                    ",
"                    "};
