/* XPM */
static char * restoreO_xpm[] = {
"20 42 9 1",
" 	c #353535",
".	c #373839",
"+	c #6A6A6A",
"@	c #434546",
"#	c #3D4041",
"$	c #FFFFFF",
"%	c #3F4142",
"&	c #4B4B4B",
"*	c #B8C2C6",
"       .++++++.     ",
"      ++++++++++    ",
"    @++++++++++++#  ",
"    ++++++++++++++  ",
"   ++++++$$$$$$$+++ ",
"  .++++++$$$$$$$+++.",
"  +++++++$$+++$$++++",
"  ++++$$+$$+++$$++++",
"  ++++$$+$$+++$$++++",
"  ++++$$+$$$$$$$++++",
"  ++++$$+$$$$$$$++++",
"  ++++$$++++++++++++",
"  .+++$$$$$$$++++++.",
"   +++$$$$$$$++++++ ",
"    ++++++++++++++  ",
"    %++++++++++++#  ",
"      ++++++++++    ",
"       .++++++.     ",
"                    ",
"                    ",
"                    ",
"       .&&&&&&.     ",
"      &&&&&&&&&&    ",
"    @&&&&&&&&&&&&#  ",
"    &&&&&&&&&&&&&&  ",
"   &&&&&&*******&&& ",
"  .&&&&&&*******&&&.",
"  &&&&&&&**&&&**&&&&",
"  &&&&**&**&&&**&&&&",
"  &&&&**&**&&&**&&&&",
"  &&&&**&*******&&&&",
"  &&&&**&*******&&&&",
"  &&&&**&&&&&&&&&&&&",
"  .&&&*******&&&&&&.",
"   &&&*******&&&&&& ",
"    &&&&&&&&&&&&&&  ",
"    %&&&&&&&&&&&&#  ",
"      &&&&&&&&&&    ",
"       .&&&&&&.     ",
"                    ",
"                    ",
"                    "};
