/* XPM */
static char * restoreA_xpm[] = {
"20 42 16 1",
" 	c #353535",
".	c #FFFFFF",
"+	c #363839",
"@	c #434D52",
"#	c #4B565B",
"$	c #3A4042",
"%	c #4A565A",
"&	c #4C585C",
"*	c #393E40",
"=	c #424D51",
"-	c #B8C2C6",
";	c #363838",
">	c #454F54",
",	c #4B555A",
"'	c #4A555A",
")	c #434D51",
"                    ",
"                    ",
"                    ",
"                    ",
"         .......    ",
"         .......    ",
"         ..   ..    ",
"      .. ..   ..    ",
"      .. ..   ..    ",
"      .. .......    ",
"      .. .......    ",
"      ..            ",
"      .......       ",
"      .......       ",
"                    ",
"                    ",
"                    ",
"                    ",
"                    ",
"                    ",
"                    ",
"        +@##@+      ",
"      $%&&&&&&%*    ",
"     =&&&&&&&&&&=   ",
"    =&&&&&&&&&&&&=  ",
"   $&&&&&-------&&* ",
"   %&&&&&-------&&% ",
"  +&&&&&&--&&&--&&&;",
"  >&&&--&--&&&--&&&@",
"  ,&&&--&--&&&--&&&,",
"  ,&&&--&-------&&&'",
"  @&&&--&-------&&&)",
"  +&&&--&&&&&&&&&&&;",
"   %&&-------&&&&&% ",
"   *&&-------&&&&&* ",
"    =&&&&&&&&&&&&=  ",
"     =&&&&&&&&&&=   ",
"      *%&&&&&&%*    ",
"        ;),,);      ",
"                    ",
"                    ",
"                    "};
